<?xml version="1.0" standalone="no"?>
<!DOCTYPE svg PUBLIC "-//W3C//DTD SVG 20010904//EN"
 "http://www.w3.org/TR/2001/REC-SVG-20010904/DTD/svg10.dtd">
<svg version="1.0" xmlns="http://www.w3.org/2000/svg"
 width="538.000000pt" height="229.000000pt" viewBox="0 0 538.000000 229.000000"
 preserveAspectRatio="xMidYMid meet">

<g transform="translate(0.000000,229.000000) scale(0.100000,-0.100000)"
fill="#000000" stroke="none">
<path d="M1790 1290 l0 -500 100 0 100 0 0 500 0 500 -100 0 -100 0 0 -500z"/>
<path d="M3185 1714 c-219 -32 -385 -174 -426 -364 -17 -81 -7 -254 20 -321
44 -114 129 -191 254 -231 88 -29 287 -27 397 3 43 11 85 26 92 32 10 10 12
56 10 215 l-4 202 -154 0 -154 0 0 -75 0 -75 60 0 60 0 0 -80 0 -79 -42 -12
c-110 -29 -235 29 -291 136 -30 57 -36 221 -12 300 22 68 76 132 141 165 74
37 213 41 310 8 l72 -24 16 74 c9 40 14 78 11 83 -18 29 -258 58 -360 43z"/>
<path d="M455 1651 l-80 -6 -3 -427 -2 -428 105 0 105 0 0 125 0 125 94 0
c210 0 337 54 401 172 25 45 30 67 33 143 3 83 1 94 -25 145 -33 65 -91 112
-166 136 -57 18 -318 27 -462 15z m378 -164 c49 -32 69 -75 64 -140 -7 -108
-65 -150 -219 -155 l-98 -4 0 162 0 162 113 -3 c88 -3 119 -8 140 -22z"/>
<path d="M4823 1583 l-63 -4 0 -79 0 -80 -45 0 -45 0 0 -65 0 -65 44 0 44 0 4
-192 c3 -212 12 -249 70 -291 46 -34 270 -37 280 -4 2 7 2 37 0 68 l-4 57 -55
-2 c-46 -1 -58 3 -74 23 -17 21 -19 40 -19 182 l0 159 75 0 75 0 0 65 0 65
-75 0 -75 0 -2 58 c0 31 0 69 1 85 3 30 15 28 -136 20z"/>
<path d="M1357 1430 c-84 -22 -154 -77 -195 -154 -25 -47 -27 -60 -27 -171 0
-114 1 -122 30 -174 35 -64 99 -115 169 -136 79 -24 220 -21 303 7 l68 23 3
74 c3 83 12 79 -90 42 -67 -24 -154 -27 -202 -7 -32 13 -94 81 -84 92 5 5 242
53 336 69 l44 7 -4 87 c-4 116 -36 172 -119 214 -62 31 -166 43 -232 27z m152
-146 c23 -19 31 -34 31 -59 0 -30 -3 -33 -52 -48 -76 -24 -158 -40 -165 -33
-4 3 1 31 11 60 31 100 110 135 175 80z"/>
<path d="M3827 1430 c-92 -24 -169 -88 -209 -175 -32 -71 -33 -228 -2 -296 31
-66 78 -114 142 -146 53 -26 65 -28 182 -28 110 0 131 3 178 24 l52 23 0 74 0
73 -57 -26 c-77 -34 -185 -43 -237 -18 -20 10 -48 34 -62 54 -30 45 -40 41
180 81 93 17 174 33 179 37 17 10 1 155 -22 200 -23 46 -70 89 -120 110 -43
18 -155 25 -204 13z m161 -155 c34 -40 29 -73 -13 -91 -29 -12 -161 -44 -182
-44 -10 0 7 81 23 112 31 60 128 73 172 23z"/>
<path d="M4383 1430 c-117 -25 -184 -112 -168 -218 13 -91 51 -124 198 -177
80 -28 95 -55 52 -95 -22 -21 -31 -22 -98 -18 -54 3 -85 11 -111 27 l-36 23 0
-80 c0 -76 1 -79 28 -92 45 -22 211 -25 271 -5 100 33 142 89 143 189 0 106
-35 148 -161 190 -37 13 -78 29 -90 35 -25 14 -28 53 -5 75 23 24 120 21 169
-4 22 -11 41 -20 42 -20 2 0 3 31 3 70 l0 70 -36 15 c-45 19 -147 27 -201 15z"/>
<path d="M2080 1173 c0 -220 3 -253 19 -288 36 -77 85 -105 187 -105 70 0 119
16 171 56 l33 25 0 -35 0 -36 88 0 87 0 0 315 0 315 -97 0 -98 0 0 -211 c0
-131 -4 -218 -11 -231 -15 -27 -74 -51 -110 -43 -16 4 -38 18 -49 32 -19 24
-20 40 -20 239 l0 214 -100 0 -100 0 0 -247z"/>
</g>
</svg>
