<?xml version="1.0" standalone="no"?>
<!DOCTYPE svg PUBLIC "-//W3C//DTD SVG 20010904//EN"
 "http://www.w3.org/TR/2001/REC-SVG-20010904/DTD/svg10.dtd">
<svg version="1.0" xmlns="http://www.w3.org/2000/svg"
 width="335.000000pt" height="279.000000pt" viewBox="0 0 335.000000 279.000000"
 preserveAspectRatio="xMidYMid meet">

<g transform="translate(0.000000,279.000000) scale(0.100000,-0.100000)"
fill="#000000" stroke="none">
<path d="M859 2324 c-265 -48 -424 -177 -468 -382 -22 -103 -5 -245 39 -331
43 -86 136 -153 232 -167 24 -4 55 -14 70 -22 51 -29 48 -11 79 -577 8 -150
16 -230 26 -252 14 -30 64 -63 97 -63 25 0 45 -42 53 -110 4 -41 13 -70 25
-82 22 -22 76 -24 106 -2 19 13 22 24 22 77 0 96 5 104 64 121 83 24 80 8 66
439 -7 206 -10 391 -6 411 4 22 16 42 31 52 14 9 98 31 187 50 90 19 221 50
292 69 137 37 336 117 360 144 11 13 12 27 4 76 -5 33 -8 140 -5 238 l4 178
-26 11 c-49 19 -246 67 -356 87 -266 49 -722 67 -896 35z m475 -149 c77 -8
143 -18 147 -22 5 -5 -85 -9 -199 -11 -365 -4 -495 -50 -588 -207 l-23 -40 -2
35 c-2 53 1 72 22 111 20 39 63 80 111 105 83 43 292 54 532 29z"/>
<path d="M2615 2227 c-61 -29 -156 -89 -174 -111 -16 -20 -6 -36 23 -36 31 0
226 58 254 76 24 16 30 55 9 72 -27 23 -62 22 -112 -1z"/>
<path d="M2200 2131 c-6 -12 -10 -93 -10 -194 0 -152 2 -178 18 -196 14 -19
23 -21 60 -15 23 4 54 15 67 26 25 19 25 21 25 177 0 177 -5 193 -68 211 -55
15 -80 12 -92 -9z"/>
<path d="M2815 2054 c-16 -2 -77 -9 -135 -15 -138 -14 -231 -34 -241 -51 -14
-22 20 -38 85 -39 34 0 129 -4 211 -8 204 -10 234 -2 235 61 0 49 -44 64 -155
52z"/>
<path d="M2451 1881 c-7 -5 -10 -14 -7 -20 12 -20 207 -112 237 -113 53 -2 91
61 55 91 -13 11 -210 51 -250 51 -12 0 -27 -4 -35 -9z"/>
<path d="M1312 1338 c-8 -8 -12 -53 -12 -138 0 -85 4 -130 12 -138 7 -7 30
-12 53 -12 23 0 46 5 53 12 8 8 12 54 12 140 0 116 -2 128 -19 138 -27 14 -84
13 -99 -2z"/>
</g>
</svg>
