<?xml version="1.0" encoding="utf-8"?>
<svg version="1.0" xmlns="http://www.w3.org/2000/svg" width="501.000000pt" height="486.000000pt" viewBox="0 0 501.000000 486.000000" preserveAspectRatio="xMidYMid meet" xmlns:bx="https://boxy-svg.com">
  <defs>
    <bx:export>
      <bx:file format="svg" path="Sin título.svg" units="pt"/>
      <bx:file format="svg" href="#object-0" path="Sin título 2.svg" units="pt"/>
    </bx:export>
  </defs>
  <g transform="translate(0.000000,486.000000) scale(0.100000,-0.100000)" fill="#000000" stroke="none" id="object-0">
    <path d="M686 3190 c-193 -24 -309 -124 -323 -279 -14 -147 57 -253 194 -290 22 -6 44 -19 48 -29 4 -9 11 -100 15 -202 12 -272 21 -312 76 -330 31 -11 33 -14 36 -63 3 -52 3 -52 39 -55 l36 -3 7 60 c5 40 11 61 20 61 7 0 26 10 41 22 l27 21 -7 227 c-8 243 -4 284 26 301 11 5 73 19 137 30 132 22 224 47 327 90 l71 30 -1 149 0 150 -62 25 c-83 33 -197 62 -291 74 -115 15 -338 20 -416 11z m289 -104 l70 -14 -98 -1 c-193 -2 -318 -32 -367 -87 -16 -19 -30 -39 -30 -45 0 -6 -4 -7 -10 -4 -15 9 -12 43 7 75 20 34 78 68 135 79 66 13 215 11 293 -3z" style="fill: rgb(255, 255, 255);"/>
    <path d="M1716 3077 c-67 -36 -58 -44 30 -28 64 12 80 22 71 45 -9 24 -35 19 -101 -17z" style="fill: rgb(255, 255, 255);"/>
    <path d="M1510 2935 l0 -125 24 0 c54 0 56 4 56 121 0 97 -2 109 -19 119 -11 5 -29 10 -40 10 -20 0 -21 -5 -21 -125z" style="fill: rgb(255, 255, 255);"/>
    <path d="M1753 2986 c-39 -6 -74 -14 -78 -17 -3 -4 25 -10 62 -13 37 -4 93 -9 123 -12 66 -7 104 12 81 40 -16 19 -77 19 -188 2z" style="fill: rgb(255, 255, 255);"/>
    <path d="M1670 2893 c0 -12 120 -64 139 -61 31 6 24 36 -11 46 -50 16 -128 24 -128 15z" style="fill: rgb(255, 255, 255);"/>
    <path d="M2420 2545 l0 -335 55 0 55 0 0 335 0 335 -55 0 -55 0 0 -335z" style="fill: rgb(255, 255, 255);"/>
    <path d="M3253 2831 c-51 -13 -119 -58 -153 -101 -53 -66 -73 -140 -68 -245 6 -105 35 -174 93 -223 83 -68 233 -78 368 -25 l37 15 0 139 0 139 -90 0 -90 0 0 -39 c0 -37 2 -40 33 -43 l32 -3 3 -67 3 -67 -36 -7 c-84 -15 -165 20 -202 89 -27 49 -25 189 4 243 49 92 139 128 257 102 l66 -15 10 36 c13 48 14 46 -17 61 -33 15 -204 23 -250 11z" style="fill: rgb(255, 255, 255);"/>
    <path d="M4415 2761 l-40 -6 -3 -57 c-3 -54 -5 -58 -27 -58 -22 0 -25 -4 -25 -39 0 -33 4 -40 25 -45 25 -6 25 -7 25 -127 0 -145 12 -183 65 -205 22 -9 59 -14 93 -12 l57 3 3 38 c3 36 3 37 -32 37 -60 0 -67 16 -64 149 2 94 6 116 18 117 8 1 27 2 43 3 25 1 27 4 27 41 l0 40 -45 0 -45 0 0 65 c0 72 5 68 -75 56z" style="fill: rgb(255, 255, 255);"/>
    <path d="M1523 2753 l-41 -4 -4 -62 c-2 -34 -3 -154 -3 -267 l0 -205 63 -3 62 -3 0 79 0 79 91 6 c111 7 169 32 207 90 23 35 27 51 27 116 0 64 -4 81 -23 109 -41 56 -72 66 -212 68 -69 1 -144 0 -167 -3z m256 -120 c19 -22 22 -34 18 -71 -7 -68 -32 -86 -122 -90 l-75 -4 0 95 0 96 33 4 c65 9 121 -3 146 -30z" style="fill: rgb(255, 255, 255);"/>
    <path d="M2100 2637 c-46 -15 -106 -77 -119 -124 -16 -55 -13 -138 5 -181 16 -38 56 -87 86 -103 38 -20 118 -29 171 -18 76 16 97 32 97 75 0 33 -2 36 -22 30 -68 -20 -127 -28 -152 -22 -32 8 -79 51 -74 68 2 6 44 22 94 35 49 13 105 31 124 41 33 16 35 20 34 65 0 59 -24 94 -84 125 -48 24 -103 27 -160 9z m105 -79 c26 -12 44 -53 29 -67 -13 -12 -143 -45 -150 -38 -13 13 9 68 38 92 33 28 46 30 83 13z" style="fill: rgb(255, 255, 255);"/>
    <path d="M3716 2635 c-120 -43 -170 -184 -110 -311 42 -89 138 -134 245 -114 84 16 99 28 99 76 l0 42 -52 -20 c-74 -28 -133 -20 -170 22 -16 17 -26 34 -24 39 3 4 31 13 62 20 85 19 178 51 186 65 4 6 8 28 8 50 0 107 -124 174 -244 131z m119 -90 c14 -13 25 -31 25 -39 0 -14 -61 -37 -141 -53 -31 -6 -32 -5 -25 23 21 85 92 119 141 69z" style="fill: rgb(255, 255, 255);"/>
    <path d="M4074 2632 c-54 -26 -74 -56 -74 -112 1 -56 19 -79 96 -123 31 -17 63 -42 71 -53 12 -19 12 -24 -3 -39 -14 -13 -30 -16 -73 -12 -31 2 -64 8 -73 12 -16 6 -18 1 -18 -38 l0 -46 48 -7 c110 -18 188 2 222 58 44 73 14 139 -90 197 -45 26 -66 44 -68 59 -5 33 36 48 99 36 27 -6 51 -8 54 -6 9 9 5 71 -5 77 -5 3 -40 8 -77 11 -54 4 -77 1 -109 -14z" style="fill: rgb(255, 255, 255);"/>
    <path d="M2600 2473 c0 -195 9 -225 73 -257 45 -22 88 -14 150 28 l36 25 3 -27 c3 -25 7 -27 56 -30 l52 -3 0 215 0 216 -54 0 -54 0 -7 -104 c-4 -57 -4 -121 -1 -142 7 -43 3 -52 -34 -77 -33 -23 -77 -22 -90 2 -5 11 -10 86 -10 170 l0 151 -60 0 -60 0 0 -167z" style="fill: rgb(255, 255, 255);"/>
    <path d="M926 2552 c-10 -17 6 -162 18 -162 32 1 41 20 41 92 0 72 -1 73 -27 76 -14 2 -29 -1 -32 -6z" style="fill: rgb(255, 255, 255);"/>
  </g>
</svg>